<mxfile host="app.diagrams.net" agent="Mozilla/5.0 (Windows NT 10.0; Win64; x64) AppleWebKit/537.36 (KHTML, like Gecko) Chrome/131.0.0.0 Safari/537.36" version="24.8.6">
  <diagram name="Page-1" id="Ntax04rmGgVVswNrzHdb">
    <mxGraphModel dx="1900" dy="557" grid="1" gridSize="10" guides="1" tooltips="1" connect="1" arrows="1" fold="1" page="1" pageScale="1" pageWidth="850" pageHeight="1100" math="0" shadow="0">
      <root>
        <mxCell id="0" />
        <mxCell id="1" parent="0" />
        <mxCell id="kIgDqrGgYZ155_Omxt1B-1" value="Patient" style="rounded=0;whiteSpace=wrap;html=1;fontSize=20;fontStyle=1" parent="1" vertex="1">
          <mxGeometry x="130" y="160" width="120" height="60" as="geometry" />
        </mxCell>
        <mxCell id="kIgDqrGgYZ155_Omxt1B-2" value="Appointment" style="rounded=0;whiteSpace=wrap;html=1;fontSize=20;fontStyle=1" parent="1" vertex="1">
          <mxGeometry x="320" y="410" width="160" height="60" as="geometry" />
        </mxCell>
        <mxCell id="kIgDqrGgYZ155_Omxt1B-3" value="Doctor" style="rounded=0;whiteSpace=wrap;html=1;fontSize=20;fontStyle=1" parent="1" vertex="1">
          <mxGeometry x="570" y="160" width="120" height="60" as="geometry" />
        </mxCell>
        <mxCell id="kIgDqrGgYZ155_Omxt1B-4" value="Doctor_Id" style="ellipse;whiteSpace=wrap;html=1;fontSize=14;" parent="1" vertex="1">
          <mxGeometry x="420" y="260" width="100" height="60" as="geometry" />
        </mxCell>
        <mxCell id="kIgDqrGgYZ155_Omxt1B-5" value="Patient_Id" style="ellipse;whiteSpace=wrap;html=1;fontSize=14;" parent="1" vertex="1">
          <mxGeometry x="280" y="260" width="100" height="60" as="geometry" />
        </mxCell>
        <mxCell id="kIgDqrGgYZ155_Omxt1B-6" value="Id" style="ellipse;whiteSpace=wrap;html=1;fontSize=14;fontStyle=4" parent="1" vertex="1">
          <mxGeometry x="180" y="310" width="100" height="60" as="geometry" />
        </mxCell>
        <mxCell id="kIgDqrGgYZ155_Omxt1B-7" value="Appointment_Date" style="ellipse;whiteSpace=wrap;html=1;fontSize=14;" parent="1" vertex="1">
          <mxGeometry x="530" y="300" width="140" height="60" as="geometry" />
        </mxCell>
        <mxCell id="kIgDqrGgYZ155_Omxt1B-8" value="Id" style="ellipse;whiteSpace=wrap;html=1;fontSize=14;fontStyle=4" parent="1" vertex="1">
          <mxGeometry x="-40" y="60" width="100" height="60" as="geometry" />
        </mxCell>
        <mxCell id="kIgDqrGgYZ155_Omxt1B-9" value="Name" style="ellipse;whiteSpace=wrap;html=1;fontSize=14;" parent="1" vertex="1">
          <mxGeometry x="60" y="20" width="100" height="60" as="geometry" />
        </mxCell>
        <mxCell id="kIgDqrGgYZ155_Omxt1B-10" value="Age" style="ellipse;whiteSpace=wrap;html=1;fontSize=14;" parent="1" vertex="1">
          <mxGeometry x="180" y="10" width="100" height="60" as="geometry" />
        </mxCell>
        <mxCell id="kIgDqrGgYZ155_Omxt1B-11" value="&lt;font style=&quot;font-size: 14px;&quot;&gt;Gender&lt;/font&gt;" style="ellipse;whiteSpace=wrap;html=1;fontSize=14;" parent="1" vertex="1">
          <mxGeometry x="300" y="30" width="100" height="60" as="geometry" />
        </mxCell>
        <mxCell id="kIgDqrGgYZ155_Omxt1B-12" value="Id" style="ellipse;whiteSpace=wrap;html=1;fontSize=14;fontStyle=4" parent="1" vertex="1">
          <mxGeometry x="480" y="70" width="100" height="60" as="geometry" />
        </mxCell>
        <mxCell id="kIgDqrGgYZ155_Omxt1B-13" value="Name" style="ellipse;whiteSpace=wrap;html=1;fontSize=14;" parent="1" vertex="1">
          <mxGeometry x="590" y="10" width="100" height="60" as="geometry" />
        </mxCell>
        <mxCell id="kIgDqrGgYZ155_Omxt1B-14" value="Specialization" style="ellipse;whiteSpace=wrap;html=1;fontSize=14;" parent="1" vertex="1">
          <mxGeometry x="710" y="60" width="100" height="60" as="geometry" />
        </mxCell>
        <mxCell id="kIgDqrGgYZ155_Omxt1B-15" value="" style="endArrow=none;html=1;rounded=0;entryX=0;entryY=0.5;entryDx=0;entryDy=0;" parent="1" target="kIgDqrGgYZ155_Omxt1B-7" edge="1">
          <mxGeometry width="50" height="50" relative="1" as="geometry">
            <mxPoint x="440" y="410" as="sourcePoint" />
            <mxPoint x="490" y="360" as="targetPoint" />
          </mxGeometry>
        </mxCell>
        <mxCell id="kIgDqrGgYZ155_Omxt1B-16" value="" style="endArrow=none;html=1;rounded=0;entryX=1;entryY=1;entryDx=0;entryDy=0;" parent="1" source="kIgDqrGgYZ155_Omxt1B-2" target="kIgDqrGgYZ155_Omxt1B-5" edge="1">
          <mxGeometry width="50" height="50" relative="1" as="geometry">
            <mxPoint x="375" y="390" as="sourcePoint" />
            <mxPoint x="425" y="340" as="targetPoint" />
          </mxGeometry>
        </mxCell>
        <mxCell id="kIgDqrGgYZ155_Omxt1B-17" value="" style="endArrow=none;html=1;rounded=0;exitX=0.25;exitY=0;exitDx=0;exitDy=0;entryX=0.928;entryY=0.813;entryDx=0;entryDy=0;entryPerimeter=0;" parent="1" source="kIgDqrGgYZ155_Omxt1B-3" target="kIgDqrGgYZ155_Omxt1B-12" edge="1">
          <mxGeometry width="50" height="50" relative="1" as="geometry">
            <mxPoint x="590" y="140" as="sourcePoint" />
            <mxPoint x="640" y="90" as="targetPoint" />
          </mxGeometry>
        </mxCell>
        <mxCell id="kIgDqrGgYZ155_Omxt1B-18" value="" style="endArrow=none;html=1;rounded=0;entryX=0.012;entryY=0.633;entryDx=0;entryDy=0;entryPerimeter=0;exitX=0.65;exitY=-0.02;exitDx=0;exitDy=0;exitPerimeter=0;" parent="1" source="kIgDqrGgYZ155_Omxt1B-3" target="kIgDqrGgYZ155_Omxt1B-14" edge="1">
          <mxGeometry width="50" height="50" relative="1" as="geometry">
            <mxPoint x="630" y="160" as="sourcePoint" />
            <mxPoint x="680" y="110" as="targetPoint" />
          </mxGeometry>
        </mxCell>
        <mxCell id="kIgDqrGgYZ155_Omxt1B-19" value="" style="endArrow=none;html=1;rounded=0;exitX=0.417;exitY=0;exitDx=0;exitDy=0;exitPerimeter=0;" parent="1" source="kIgDqrGgYZ155_Omxt1B-3" target="kIgDqrGgYZ155_Omxt1B-13" edge="1">
          <mxGeometry width="50" height="50" relative="1" as="geometry">
            <mxPoint x="605" y="150" as="sourcePoint" />
            <mxPoint x="655" y="100" as="targetPoint" />
          </mxGeometry>
        </mxCell>
        <mxCell id="kIgDqrGgYZ155_Omxt1B-20" value="" style="endArrow=none;html=1;rounded=0;exitX=0.5;exitY=0;exitDx=0;exitDy=0;" parent="1" source="kIgDqrGgYZ155_Omxt1B-1" target="kIgDqrGgYZ155_Omxt1B-9" edge="1">
          <mxGeometry width="50" height="50" relative="1" as="geometry">
            <mxPoint x="190" y="156" as="sourcePoint" />
            <mxPoint x="215" y="110" as="targetPoint" />
          </mxGeometry>
        </mxCell>
        <mxCell id="kIgDqrGgYZ155_Omxt1B-21" value="" style="endArrow=none;html=1;rounded=0;entryX=1;entryY=0.5;entryDx=0;entryDy=0;exitX=0.25;exitY=0;exitDx=0;exitDy=0;" parent="1" source="kIgDqrGgYZ155_Omxt1B-1" target="kIgDqrGgYZ155_Omxt1B-8" edge="1">
          <mxGeometry width="50" height="50" relative="1" as="geometry">
            <mxPoint x="130" y="160" as="sourcePoint" />
            <mxPoint x="180" y="110" as="targetPoint" />
          </mxGeometry>
        </mxCell>
        <mxCell id="kIgDqrGgYZ155_Omxt1B-22" value="" style="endArrow=none;html=1;rounded=0;exitX=0.81;exitY=-0.033;exitDx=0;exitDy=0;exitPerimeter=0;" parent="1" source="kIgDqrGgYZ155_Omxt1B-1" edge="1">
          <mxGeometry width="50" height="50" relative="1" as="geometry">
            <mxPoint x="260" y="130" as="sourcePoint" />
            <mxPoint x="310" y="80" as="targetPoint" />
          </mxGeometry>
        </mxCell>
        <mxCell id="kIgDqrGgYZ155_Omxt1B-23" value="" style="endArrow=none;html=1;rounded=0;exitX=0.583;exitY=0;exitDx=0;exitDy=0;exitPerimeter=0;entryX=0.5;entryY=1;entryDx=0;entryDy=0;" parent="1" source="kIgDqrGgYZ155_Omxt1B-1" target="kIgDqrGgYZ155_Omxt1B-10" edge="1">
          <mxGeometry width="50" height="50" relative="1" as="geometry">
            <mxPoint x="190" y="150" as="sourcePoint" />
            <mxPoint x="240" y="100" as="targetPoint" />
          </mxGeometry>
        </mxCell>
        <mxCell id="kIgDqrGgYZ155_Omxt1B-24" value="" style="endArrow=none;html=1;rounded=0;" parent="1" target="kIgDqrGgYZ155_Omxt1B-4" edge="1">
          <mxGeometry width="50" height="50" relative="1" as="geometry">
            <mxPoint x="410" y="410" as="sourcePoint" />
            <mxPoint x="460" y="360" as="targetPoint" />
          </mxGeometry>
        </mxCell>
        <mxCell id="kIgDqrGgYZ155_Omxt1B-25" value="" style="endArrow=none;html=1;rounded=0;entryX=1;entryY=0.5;entryDx=0;entryDy=0;" parent="1" target="kIgDqrGgYZ155_Omxt1B-6" edge="1">
          <mxGeometry width="50" height="50" relative="1" as="geometry">
            <mxPoint x="360" y="410" as="sourcePoint" />
            <mxPoint x="410" y="360" as="targetPoint" />
          </mxGeometry>
        </mxCell>
        <mxCell id="kIgDqrGgYZ155_Omxt1B-26" value="" style="endArrow=none;html=1;rounded=0;exitX=0.5;exitY=0;exitDx=0;exitDy=0;entryX=0.003;entryY=0.62;entryDx=0;entryDy=0;entryPerimeter=0;" parent="1" source="kIgDqrGgYZ155_Omxt1B-27" target="kIgDqrGgYZ155_Omxt1B-1" edge="1">
          <mxGeometry width="50" height="50" relative="1" as="geometry">
            <mxPoint x="100" y="340" as="sourcePoint" />
            <mxPoint x="140" y="200" as="targetPoint" />
            <Array as="points">
              <mxPoint x="100" y="197" />
            </Array>
          </mxGeometry>
        </mxCell>
        <mxCell id="kIgDqrGgYZ155_Omxt1B-27" value="Schedule" style="rhombus;whiteSpace=wrap;html=1;fontSize=14;" parent="1" vertex="1">
          <mxGeometry x="60" y="300" width="80" height="80" as="geometry" />
        </mxCell>
        <mxCell id="kIgDqrGgYZ155_Omxt1B-28" value="Has To Attend" style="rhombus;whiteSpace=wrap;html=1;fontSize=14;" parent="1" vertex="1">
          <mxGeometry x="692" y="300" width="80" height="80" as="geometry" />
        </mxCell>
        <mxCell id="kIgDqrGgYZ155_Omxt1B-29" value="" style="endArrow=none;html=1;rounded=0;entryX=0.025;entryY=0.387;entryDx=0;entryDy=0;entryPerimeter=0;" parent="1" source="kIgDqrGgYZ155_Omxt1B-27" target="kIgDqrGgYZ155_Omxt1B-2" edge="1">
          <mxGeometry width="50" height="50" relative="1" as="geometry">
            <mxPoint x="90" y="460" as="sourcePoint" />
            <mxPoint x="150" y="410" as="targetPoint" />
            <Array as="points">
              <mxPoint x="100" y="433" />
            </Array>
          </mxGeometry>
        </mxCell>
        <mxCell id="kIgDqrGgYZ155_Omxt1B-30" value="" style="endArrow=none;html=1;rounded=0;entryX=0.997;entryY=0.647;entryDx=0;entryDy=0;entryPerimeter=0;exitX=0.5;exitY=0;exitDx=0;exitDy=0;" parent="1" source="kIgDqrGgYZ155_Omxt1B-28" edge="1">
          <mxGeometry width="50" height="50" relative="1" as="geometry">
            <mxPoint x="721" y="310" as="sourcePoint" />
            <mxPoint x="690.6399999999999" y="198.82000000000005" as="targetPoint" />
            <Array as="points">
              <mxPoint x="731" y="200" />
            </Array>
          </mxGeometry>
        </mxCell>
        <mxCell id="kIgDqrGgYZ155_Omxt1B-31" value="" style="endArrow=none;html=1;rounded=0;entryX=0.5;entryY=1;entryDx=0;entryDy=0;exitX=1;exitY=0.25;exitDx=0;exitDy=0;" parent="1" target="kIgDqrGgYZ155_Omxt1B-28" edge="1">
          <mxGeometry width="50" height="50" relative="1" as="geometry">
            <mxPoint x="481" y="425" as="sourcePoint" />
            <mxPoint x="691" y="410" as="targetPoint" />
            <Array as="points">
              <mxPoint x="731" y="425" />
            </Array>
          </mxGeometry>
        </mxCell>
        <mxCell id="kIgDqrGgYZ155_Omxt1B-32" value="&lt;font style=&quot;font-size: 18px;&quot;&gt;&lt;span style=&quot;font-size: 18px;&quot;&gt;1&lt;/span&gt;&lt;/font&gt;" style="text;html=1;align=center;verticalAlign=middle;whiteSpace=wrap;rounded=0;fontSize=18;fontStyle=1" parent="1" vertex="1">
          <mxGeometry x="90" y="160" width="40" height="40" as="geometry" />
        </mxCell>
        <mxCell id="kIgDqrGgYZ155_Omxt1B-33" value="&lt;font style=&quot;font-size: 18px;&quot;&gt;&lt;span style=&quot;font-size: 18px;&quot;&gt;1&lt;/span&gt;&lt;/font&gt;" style="text;html=1;align=center;verticalAlign=middle;whiteSpace=wrap;rounded=0;fontSize=18;fontStyle=1" parent="1" vertex="1">
          <mxGeometry x="690" y="165" width="40" height="30" as="geometry" />
        </mxCell>
        <mxCell id="kIgDqrGgYZ155_Omxt1B-34" value="N" style="text;html=1;align=center;verticalAlign=middle;whiteSpace=wrap;rounded=0;fontSize=18;fontStyle=1" parent="1" vertex="1">
          <mxGeometry x="480" y="420" width="40" height="40" as="geometry" />
        </mxCell>
        <mxCell id="kIgDqrGgYZ155_Omxt1B-35" value="N" style="text;html=1;align=center;verticalAlign=middle;whiteSpace=wrap;rounded=0;fontSize=18;fontStyle=1" parent="1" vertex="1">
          <mxGeometry x="280" y="430" width="40" height="40" as="geometry" />
        </mxCell>
      </root>
    </mxGraphModel>
  </diagram>
</mxfile>
